<?xml version="1.0" encoding="utf-8"?>
<!-- Generator: Adobe Illustrator 19.0.0, SVG Export Plug-In . SVG Version: 6.00 Build 0)  -->
<svg version="1.1" id="layer" xmlns="http://www.w3.org/2000/svg" xmlns:xlink="http://www.w3.org/1999/xlink" x="0px" y="0px"
	 viewBox="-153 -46 652 652" style="enable-background:new -153 -46 652 652;" xml:space="preserve">
<rect x="-153" y="-46" width="652" height="652" fill="white"/>
<style type="text/css">
	.st0{fill:#0F1C44;}
</style>
<path class="st0" d="M323.9,301.3c-13.3,0-20.7-6.2-20.7-17.5v-1.1l0.6-0.6h10l0.6,0.6v1.1c0,4.8,3.3,7.5,9.6,7.5
	c8.2,0,9.5-3.1,9.5-5.5c0-4.3-2.6-5.2-12.7-7.2c-11.4-2.3-16.5-7-16.5-15.5c0-3.4,1.4-14.5,19.7-14.5c12.1,0,19.7,5.9,19.7,15.5v1.1
	l-0.6,0.6h-10l-0.6-0.6v-1.1c0-3.4-3.2-5.5-8.6-5.5c-7.3,0-8.6,2.5-8.6,4.5c0,4.3,3.7,5.2,13.7,7.2c10.9,2.2,15.5,6.8,15.5,15.5
	C344.6,293.3,339.1,301.3,323.9,301.3L323.9,301.3z M-30.4,318.5h-3.1l-0.6-0.6v-9.2l0.6-0.6h3c4.8,0,7.6-0.8,9.4-5.5l0.9-2.2v-1
	l-16.9-41.2v-8.2l0.6-0.6h7.9l0.6,0.6l13.5,35.2h1.3l13.5-35.2l0.6-0.6h7.9l0.6,0.6v8.2l-0.1,0.1l-17,41.9
	C-13.8,315.1-18,318.5-30.4,318.5L-30.4,318.5z M278.3,301.3c-13.3,0-20.7-6.2-20.7-17.5v-1.1l0.6-0.6h10l0.6,0.6v1.1
	c0,4.8,3.3,7.5,9.6,7.5c8.2,0,9.6-3.1,9.6-5.5c0-4.3-2.7-5.2-12.7-7.2c-11.4-2.3-16.5-7-16.5-15.5c0-3.4,1.4-14.5,19.7-14.5
	c12.1,0,19.7,5.9,19.7,15.5v1.1l-0.6,0.6h-10l-0.6-0.6v-1.1c0-3.4-3.2-5.5-8.6-5.5c-7.3,0-8.5,2.5-8.5,4.5c0,4.3,3.7,5.2,13.7,7.2
	c10.9,2.2,15.6,6.8,15.6,15.5C299,293.3,293.6,301.3,278.3,301.3L278.3,301.3z M415.2,300.3H405l-0.6-0.6V270c0-5.2-1-11.1-9.2-11.1
	c-8.6,0-12.3,4.8-12.3,16v24.8l-0.6,0.6h-10.8l-0.6-0.6v-49.5l0.6-0.6h10.8l0.6,0.6v4.4h0.9c1.4-2,6.1-6,12.3-6
	c12.9,0,19.7,7.4,19.7,21.4v29.7L415.2,300.3L415.2,300.3z M190.5,300.3h-10.7l-0.6-0.6l-14.5-50.2h-1.1l-14.5,50.2l-0.6,0.6h-10.7
	l-0.6-0.6l-0.3-1l-16-59.9v-8.4l0.6-0.6h8l0.6,0.6l12.5,48.3h1.2l14.4-48.3l0.6-0.6h10.7l0.6,0.6l0.3,0.9l14.1,47.3h1.2l12.3-47.5
	l0.2-0.8l0.6-0.6h8l0.6,0.6l0,8.5l-16.2,60.7L190.5,300.3L190.5,300.3z M98.7,300.3H88.4l-0.6-0.6v-49.5l0.6-0.6h10.3l0.6,0.6v4.4
	h1.1c2.6-2.5,5.8-5,12.1-5h5.1l0.6,0.6v9.2l-0.6,0.6h-6.1c-7.4,0-12.2,2.4-12.2,14.1v25.7L98.7,300.3L98.7,300.3z M26.3,300.3H16
	l-0.6-0.6v-69.2l0.6-0.6h10.3l0.6,0.6v69.2L26.3,300.3L26.3,300.3z M-97.3,300.3h-10.3l-0.6-0.6v-58.1l-1.4-1.4h-20.9l-0.6-0.6v-9.2
	l0.6-0.6h56.2l0.6,0.6v9.1l-0.6,0.6h-21l-1.4,1.4v58.1C-96.7,299.7-97.3,300.3-97.3,300.3z M445.3,321c-11.6,0-19.5-5.5-20.7-14.4
	l-0.1-1.1l0.7-0.7h9.9l0.5,0.5c0.1,0.2,0.4,0.9,0.4,0.9c1.7,3.4,4.1,4.8,9.3,4.8c8.1,0,12.1-5.3,12.2-15.7c-1.2,1.5-5.3,6-13.2,6
	c-13.8,0-22.7-10.3-22.7-26.3c0-16,8.9-26.3,22.7-26.3c6.5,0,10.9,4.2,12.4,6h0.9v-4.4l0.6-0.6h10.3l0.6,0.6v43.5
	C469,318.3,452.4,321,445.3,321L445.3,321z M445.3,258.9c-7.8,0-12.2,5.8-12.2,16c0,10.2,4.5,16,12.2,16c8.1,0,12.2-5.4,12.2-16
	C457.5,265.1,453.4,258.9,445.3,258.9L445.3,258.9z M57.3,301.3c-15.2,0-24.7-10.1-24.7-26.3c0-16.2,9.4-26.3,24.7-26.3
	S82,258.7,82,274.9C82,291.2,72.6,301.3,57.3,301.3L57.3,301.3z M57.3,258.6c-8.5,0-13.2,6-13.2,16.3s4.7,16.3,13.2,16.3
	c8.5,0,13.2-6,13.2-16.3C70.6,264.6,65.9,258.6,57.3,258.6z M-67.2,301.3c-11.2,0-17.7-6-17.7-16.5s8.3-16.5,22.7-16.5
	c3.4,0,6.5,0.5,8.1,0.8l1.1-1.1v-0.9c0-6.2-2.2-8.4-9.2-8.4c-8.2,0-9.3,3.1-9.3,5.5v1.1l-0.6,0.6h-10.3l-0.6-0.6v-1.1
	c0-7.5,5.4-15.5,20.7-15.5c14.7,0,20.7,6.5,20.7,22.4v28.7l-0.6,0.6h-9.8l-0.6-0.6v-4.3h-0.7C-54.4,296.8-58.4,301.3-67.2,301.3
	L-67.2,301.3z M-61.2,277.6c-8.1,0-12.2,2.4-12.2,7.2c0,4.3,2.5,6.2,8.3,6.2c7.4,0,12.2-3.6,12.2-9.1v-2.3l-1.1-1.1
	C-56.4,277.9-58.8,277.6-61.2,277.6L-61.2,277.6z M230.8,301.3c-7.8,0-14.2-2.6-18.5-7.5c-4-4.6-6.2-11.1-6.2-18.8
	c0-7.4,2-13.8,5.6-18.4c4.1-5.2,10.4-7.9,18-7.9c7.7,0,13.9,2.7,18,7.9c3.7,4.6,5.6,11,5.6,18.4v3.8l-0.9,0.9h-33.5l-0.6,0.6
	c0.1,1.8,1.1,11.1,12.2,11.1c3.3,0,7.3-0.9,9.3-5.7l0.4-0.9l0.6-0.6h10l0.6,0.6l-0.1,1.2C250.5,293.5,243.7,301.3,230.8,301.3
	L230.8,301.3z M219.3,270.3h21l0.7-0.7c-0.1-2.9-1.2-11-11.2-11c-9.2,0-10.9,7-11.2,10.3c0-0.1,0,0.3,0,0.7L219.3,270.3L219.3,270.3
	z M371,298v1.7V298z M351.5,300.3h10.3l0.6-0.6v-49.5l-0.6-0.6h-10.3l-0.6,0.6v49.5L351.5,300.3L351.5,300.3z M350.9,242.6l0.6,0.6
	h10.3l0.6-0.6v-10.1l-0.6-0.6h-10.3l-0.6,0.6L350.9,242.6L350.9,242.6z M424.6,306.1c0-0.1,0-0.2-0.1-0.4l0-0.4L424.6,306.1
	L424.6,306.1z"/>
</svg>
