<svg xmlns="http://www.w3.org/2000/svg" width="512" height="512" viewBox="0 0 512 512" version="1.1"><path d="" stroke="none" fill="#080404" fill-rule="evenodd"/><path d="M 18 173.933 C 18 189.646, 17.036 188.016, 27.500 190 C 30.800 190.626, 34.291 191.363, 35.257 191.639 C 36.914 192.111, 37 195.822, 36.757 256.275 L 36.500 320.411 33 321.110 C 31.075 321.495, 26.913 322.334, 23.750 322.976 L 18 324.142 18 338.071 L 18 352 60 352 L 102 352 102 338.100 L 102 324.199 96.750 323.005 C 93.862 322.348, 89.813 321.386, 87.750 320.867 L 84 319.923 83.989 309.211 L 83.978 298.500 96.693 286.435 L 109.409 274.370 127.047 298.435 L 144.685 322.500 135.342 323.400 L 126 324.299 126 338.150 L 126 352 172.528 352 L 219.056 352 218.778 338.250 L 218.500 324.500 212.500 323.360 C 209.200 322.733, 204.777 321.919, 202.671 321.550 C 198.995 320.907, 197.676 319.323, 169.888 282.190 L 140.934 243.500 167.217 217.763 C 181.673 203.607, 194.175 191.833, 195 191.598 C 195.825 191.364, 199.987 190.427, 204.250 189.517 L 212 187.864 212 173.932 L 212 160 167 160 L 122 160 122 173.864 L 122 187.728 126.640 188.364 C 129.191 188.714, 134.008 189, 137.343 189 L 143.406 189 139.453 193.087 C 137.279 195.334, 123.912 208.438, 109.750 222.206 L 84 247.239 84 219.719 L 84 192.199 89.250 191.005 C 92.138 190.348, 96.188 189.386, 98.250 188.867 L 102 187.923 102 173.961 L 102 160 60 160 L 18 160 18 173.933 M 223 173.932 L 223 187.864 230.750 189.517 C 235.012 190.427, 239.287 191.388, 240.250 191.653 C 241.893 192.105, 242 196.026, 242 256 C 242 315.968, 241.893 319.896, 240.250 320.363 C 239.287 320.637, 235.012 321.613, 230.750 322.531 L 223 324.201 223 338.100 L 223 352 266 352 L 309 352 309 338.045 L 309 324.091 305.250 323.433 C 303.188 323.071, 298.433 322.151, 294.685 321.388 C 290.936 320.624, 287.674 320, 287.435 320 C 287.196 320, 286.997 311.788, 286.993 301.750 C 286.989 291.712, 286.310 266.666, 285.484 246.092 C 284.659 225.517, 284.100 208.573, 284.242 208.437 C 284.384 208.302, 295.725 237.736, 309.444 273.846 C 323.163 309.956, 335.469 342.313, 336.791 345.750 L 339.194 352 357.437 352 L 375.679 352 401.998 280.750 C 416.474 241.563, 428.675 208.825, 429.111 208 C 429.548 207.175, 429.640 231.925, 429.315 263 C 428.990 294.075, 428.644 319.604, 428.547 319.731 C 428.450 319.859, 423.787 320.949, 418.185 322.155 L 408 324.346 408 338.184 L 408 352.021 451.250 351.761 L 494.500 351.500 494.500 338 L 494.500 324.500 487 322.719 C 482.875 321.739, 478.488 320.718, 477.250 320.450 L 475 319.962 475 256.049 L 475 192.136 482.750 190.483 C 487.012 189.573, 491.288 188.612, 492.250 188.347 C 493.810 187.918, 494 186.351, 494 173.922 L 494 159.979 449.258 160.240 L 404.516 160.500 382.789 221.500 C 370.839 255.050, 360.710 283.275, 360.281 284.223 C 359.738 285.420, 352.484 266.740, 336.500 222.983 L 313.500 160.021 268.250 160.010 L 223 160 223 173.932" stroke="none" fill="#040404" fill-rule="evenodd"/></svg>